<svg xmlns="http://www.w3.org/2000/svg" fill="none" viewBox="0 0 96 96" id="Astro-Icon--Streamline-Svg-Logos.svg"><desc>Astro Icon Streamline Icon: https://streamlinehq.com</desc><path fill="#000" d="M61.91 3.3553c0.7677 0.95313 1.1592 2.23926 1.9422 4.81152L80.9583 64.3603c-6.3246 -3.281 -13.2001 -5.6473 -20.4511 -6.9239L49.3695 19.7986c-0.1822 -0.6158 -0.748 -1.0383 -1.3901 -1.0383 -0.6439 0 -1.2106 0.4247 -1.3914 1.0426L35.5851 57.4174c-7.2846 1.2709 -14.1915 3.6415 -20.5431 6.9344L32.2319 8.15381c0.7855 -2.56783 1.1782 -3.85177 1.9461 -4.80314 0.6778 -0.8399 1.5594 -1.49219 2.5609 -1.89472C37.8733 1 39.2159 1 41.9012 1h12.2779c2.6888 0 4.0332 0 5.1686 0.4569 1.0023 0.40336 1.8845 1.05698 2.5623 1.8984Z" stroke-width="1"></path><path fill="#FF5D01" d="M63.9573 67.0344c-2.8199 2.4114 -8.4485 4.0559 -14.9319 4.0559 -7.9575 0 -14.627 -2.4773 -16.3969 -5.8091 -0.6327 1.9095 -0.7745 4.0949 -0.7745 5.4909 0 0 -0.4169 6.8549 4.3508 11.6228 0 -2.4757 2.0071 -4.4827 4.4827 -4.4827 4.2433 0 4.2386 3.7021 4.2347 6.7056 -0.0001 0.09 -0.0002 0.1794 -0.0002 0.2681 0 4.5588 2.7862 8.4667 6.7486 10.114 -0.5918 -1.2173 -0.9238 -2.5843 -0.9238 -4.0288 0 -4.3479 2.5526 -5.9668 5.5193 -7.8484 2.3604 -1.497 4.983 -3.1603 6.7904 -6.4968 0.943 -1.7409 1.4785 -3.7348 1.4785 -5.8538 0 -1.3031 -0.2024 -2.559 -0.5777 -3.7377Z" stroke-width="1"></path></svg>