<svg xmlns="http://www.w3.org/2000/svg" fill="none" viewBox="0 0 96 96" id="Remix-Icon--Streamline-Svg-Logos.svg"><desc>Remix Icon Streamline Icon: https://streamlinehq.com</desc><path fill="#121212" d="M52.3296 1c24.1811 0 36.1976 11.5089 36.1976 29.8932 0 13.7508 -8.456 22.7185 -19.8791 24.2133 9.6428 1.9432 15.2798 7.4734 16.3186 18.3843l0.1503 2.0065 0.1312 1.8758 0.1134 1.7546 0.0787 1.3231 0.0846 1.5611 0.0439 0.8909 0.0625 1.4152 0.0504 1.3368 0.025 0.7683 0.0338 1.2311 0.0291 1.4077 0.0106 0.6802 0.0191 1.9712 0.0061 2.0569L85.8057 95H60.8693l0.0012 -0.5129 0.0089 -0.9962 0.0149 -0.9704 0.0431 -2.3506 0.011 -0.788 0.0085 -1.2356 -0.0012 -0.7902 -0.0072 -0.8287 -0.0101 -0.6504 -0.0206 -0.9105 -0.0295 -0.9656 -0.0397 -1.0267 -0.0509 -1.0938 -0.03 -0.574 -0.051 -0.8969 -0.0586 -0.9422 -0.091 -1.3314 -0.0783 -1.058c-0.0225 -0.3264 -0.0485 -0.645 -0.0781 -0.9561l-0.0639 -0.6123c-0.8235 -7.2276 -3.6902 -10.1816 -8.6003 -11.1669l-0.4139 -0.0776c-0.2791 -0.0488 -0.5645 -0.0917 -0.8562 -0.1291l-0.4423 -0.052c-0.0745 -0.008 -0.1494 -0.0157 -0.2247 -0.023l-0.4565 -0.0403 -0.4659 -0.0327 -0.4754 -0.0256 -0.4796 -0.0185 -0.4888 -0.0121 -0.4981 -0.0059 -39.47244 -0.0007V44.3453H47.8794c0.6607 0 1.3009 -0.0126 1.9208 -0.0381l0.613 -0.03 0.5993 -0.0387 0.5858 -0.0476c0.0965 -0.0087 0.1924 -0.0178 0.2878 -0.0272l0.5653 -0.0612c0.3723 -0.0439 0.7356 -0.0938 1.0898 -0.1501l0.5244 -0.0891c6.5569 -1.1887 9.8351 -4.6694 9.8351 -11.4615 0 -7.6226 -5.3402 -12.2423 -16.0213 -12.2423H7.47266V1H52.3296ZM33.8395 80.4035c3.2717 0 4.6406 1.8166 5.1282 3.5554l0.0644 0.25 0.0528 0.2477 0.0343 0.1956 0.0147 0.0967 0.0247 0.191 0.0185 0.187 0.0071 0.0918 0.0101 0.18 0.003 0.0879 0.0024 0.1714V95H7.47266V80.4035H33.8395Z" stroke-width="1"></path></svg>