<svg xmlns="http://www.w3.org/2000/svg" fill="none" viewBox="0 0 96 96" id="Svelte-Icon--Streamline-Svg-Logos.svg"><desc>Svelte Icon Streamline Icon: https://streamlinehq.com</desc><path fill="#FF3E00" d="M82.1224 13.4373C73.3938 0.944427 56.1549 -2.7585 43.6903 5.18307L21.7994 19.1351c-5.9795 3.7619 -10.0982 9.8682 -11.3459 16.8216 -1.04426 5.7927 -0.1264 11.7681 2.6081 16.9803 -1.8738 2.8425 -3.15178 6.0353 -3.75677 9.3857 -1.25981 7.0869 0.38815 14.3826 4.57187 20.2399 8.7304 12.494 25.9694 16.1954 38.432 8.2542l21.8909 -13.952c5.98 -3.7614 10.0988 -9.868 11.346 -16.8216 1.0441 -5.7926 0.1269 -11.7679 -2.6063 -16.9807 1.8733 -2.8424 3.1508 -6.0352 3.7552 -9.3853 1.2607 -7.0869 -0.3874 -14.3829 -4.5718 -20.2399" stroke-width="1"></path><path fill="#fff" d="M41.55 83.7508c-7.0582 1.8352 -14.5119 -0.9276 -18.6687 -6.92 -2.5172 -3.5232 -3.5088 -7.9121 -2.7509 -12.1753 0.1271 -0.6929 0.3019 -1.3761 0.5233 -2.0449l0.4124 -1.2574 1.1219 0.824c2.5908 1.9037 5.4877 3.3511 8.5657 4.2798l0.8139 0.2469 -0.075 0.8122c-0.0994 1.1555 0.2134 2.3089 0.8832 3.2558 1.2509 1.805 3.4951 2.638 5.6208 2.0863 0.4759 -0.1272 0.9295 -0.3266 1.345 -0.5912l21.8979 -13.9545c1.0834 -0.6822 1.83 -1.7885 2.0574 -3.0484 0.227 -1.2849 -0.0718 -2.6072 -0.8291 -3.6697 -1.2517 -1.8054 -3.4964 -2.6387 -5.623 -2.0874 -0.4753 0.1272 -0.9282 0.3264 -1.3432 0.5907l-8.3561 5.3267c-1.374 0.8737 -2.8735 1.5321 -4.4466 1.9527 -7.0582 1.8351 -14.5118 -0.9277 -18.6685 -6.92 -2.5173 -3.5232 -3.5089 -7.9121 -2.7508 -12.1753 0.7504 -4.1825 3.2282 -7.8554 6.8254 -10.1175l21.8959 -13.9557c1.3747 -0.8751 2.8753 -1.5344 4.4496 -1.955 7.0581 -1.8351 14.5117 0.9277 18.6684 6.9199 2.5172 3.5233 3.5088 7.9121 2.7508 12.1754 -0.1276 0.6927 -0.3024 1.3759 -0.5232 2.0448l-0.4124 1.2575 -1.1213 -0.8228c-2.5907 -1.9048 -5.4878 -3.3528 -8.5664 -4.2816l-0.8138 -0.247 0.075 -0.8122c0.0986 -1.1555 -0.2142 -2.3086 -0.8832 -3.2558 -1.251 -1.805 -3.4952 -2.6379 -5.6209 -2.0862 -0.4759 0.1272 -0.9295 0.3266 -1.345 0.5911L34.7606 37.6919c-1.0832 0.6816 -1.8294 1.7878 -2.0557 3.0475 -0.2284 1.2848 0.0698 2.6076 0.8274 3.6702 1.2518 1.8053 3.4965 2.6386 5.623 2.0874 0.4758 -0.1275 0.9294 -0.3268 1.345 -0.5911l8.3549 -5.3248c1.3735 -0.8748 2.8729 -1.5339 4.4461 -1.9542 7.0582 -1.8352 14.5118 0.9277 18.6685 6.92 2.5173 3.5232 3.5089 7.912 2.7509 12.1752 -0.7509 4.1828 -3.2285 7.856 -6.8254 10.1191L45.9992 81.7957c-1.3746 0.8751 -2.8752 1.5344 -4.4495 1.9551" stroke-width="1"></path></svg>